/* XPM */
static char *result[] = {
/* columns rows colors chars-per-pixel */
"32 32 97 2 ",
"   c black",
".  c #010101",
"X  c #020101",
"o  c #020202",
"O  c #030202",
"+  c #060506",
"@  c #080404",
"#  c #080606",
"$  c #0C0807",
"%  c #090708",
"&  c #090909",
"*  c #0B0808",
"=  c #0A0809",
"-  c #0B0A0A",
";  c #0D0908",
":  c #0F0A0A",
">  c #100F0F",
",  c #101010",
"<  c #111111",
"1  c #121011",
"2  c #161113",
"3  c #1C1312",
"4  c #1B1717",
"5  c #1D1719",
"6  c #201D1C",
"7  c gray13",
"8  c #222222",
"9  c #2F2529",
"0  c #2D2D2D",
"q  c #2F2F2F",
"w  c #3B2B29",
"e  c #323232",
"r  c gray20",
"t  c #3E3136",
"y  c #3F3539",
"u  c #3C3C3C",
"i  c gray24",
"p  c #3E3E3E",
"a  c #412320",
"s  c #452F2C",
"d  c #44312F",
"f  c #4B3735",
"g  c #47383E",
"h  c #403F3F",
"j  c #5B3E3A",
"k  c #593F3C",
"l  c #59413E",
"z  c #414040",
"x  c gray26",
"c  c #444040",
"v  c #444343",
"b  c #444444",
"n  c #454444",
"m  c gray27",
"M  c #474445",
"N  c #474545",
"B  c #464646",
"V  c #4E4146",
"C  c #494545",
"Z  c #4A4446",
"A  c #4B4746",
"S  c #494949",
"D  c #4D4948",
"F  c #504240",
"G  c #514047",
"H  c #504147",
"J  c #594946",
"K  c #574A48",
"L  c #585858",
"P  c gray36",
"I  c #6B4E4A",
"U  c #77514C",
"Y  c #7E5F5B",
"T  c #434F65",
"R  c #6C6C6C",
"E  c #8D5D57",
"W  c #6F7F9F",
"Q  c #828080",
"!  c gray53",
"~  c #8895AF",
"^  c #A5A5A5",
"/  c #AAA8A8",
"(  c #BCB1B0",
")  c #BBB6B8",
"_  c #BEB9BB",
"`  c #C5BBB9",
"'  c #A6B0C4",
"]  c #CFC2C0",
"[  c gray82",
"{  c #D2D2D2",
"}  c #DFDFDF",
"|  c gray88",
" . c #E2E2E2",
".. c #E7E7E7",
"X. c #E9E7E8",
"o. c #FBFBFB",
"O. c white",
/* pixels */
"G G U U U U U U U U U U G G G G G G U U U U U U U U U U G G G G ",
"G G U U U U U U U U U U G G G G G G U U U U U U U U U U G G G G ",
"U U U U U U U U U U U U E E G G U U U U U U U U U U U U E E G G ",
"U U U U U U U U U U U U E E G G U U U U U U U U U U U U E E G G ",
"U U U U U U U U U U U U E ~ ~ ~ ~ ~ ~ U U U U U U U U U E E G G ",
"U U U U U U U U U U U U E ~ ~ ~ ~ ~ ~ U U U U U U U U U E E G G ",
"U U U U U U U ~ ~ ~ ~ ~ T ~ ~ ~ ~ ~ ~ T ~ ~ ~ ~ ~ U U U E E G G ",
"U U U U U U U ~ ~ ~ ~ ~ T ' ' ' ' ' ' T ~ ~ ~ ~ ~ U U U E E G G ",
"T ~ ~ ~ ~ ~ T ~ ~ ~ ~ ~ T W W W W W W T ~ ~ ~ ~ ~ T ~ ~ ~ ~ ~ T ",
"T ~ ~ ~ ~ ~ T ' ' ' ' ' T W W W W W W T ' ' ' ' ' T ~ ~ ~ ~ ~ T ",
"T ~ ~ ~ ~ ~ T W W W W W T W W W W W W T W W W W W T ~ ~ ~ ~ ~ T ",
"T ' ' ' ' ' T W W W W W T W W W W W W T W W W W W T ' ' ' ' ' T ",
"T W W W W W T W W W W W l l g 5 l l E E W W W W W T W W W W W T ",
"T W W W W W E E E E E E l l       l E E E E E E E E W W W W W T ",
"T W W W W W l l l w l l G = G   y n m *   # d l l l W W W W W T ",
"T T T T T T l l * F i { 9 + . 2 p B m B     * l l l T T T T T T ",
"T ' ' ' ' ' G G   B B B )       , B B A 8     U U U ' ' ' ' ' T ",
"T W W W W W G G i B m B       . 0 b C O./ 3 O U U U W W W W W T ",
"T W W W W W G G G V i O.5 o G G s U ` U   X     j U W W W W W T ",
"T W W W W W G H G m B B 9     R i   . $   I u , j U W W W W W T ",
"T W W W W W G B B Z m H B u } O.O.[ 0 - j ; B m U U W W W W W T ",
"T T T T T T M B {   G X.B B O.O.O.o.B 0 : P B B U U T T T T T T ",
"T ' ' ' ' ' G % u t O.O.q L } O.O.} B : j   ! B K U ' ' ' ' ' T ",
"T W W W W W G     2 _  .1     O.    : U : | O.x U U W W W W W T ",
"T W W W W W G .   < =   > .     . U J z   4   } U U W W W W W T ",
"T W W W W W G t e B y   B m h = ] N U m & b m 6 U U W W W W W T ",
"T W W W W W G G i B b 7 r m   & ..B B m A m B Q U U W W W W W T ",
"T T T T T T G G V m 0 = G H b u S m b C B B B D U U T T T T T T ",
"T ' ' ' ' ' G G G . 7 O.G G n B m B B E Y X E E E E ' ' ' ' ' T ",
"T W W W W W a a a a a f a a ^ ..b v c a a O.a a a a W W W W W T ",
"T W W W W W a a a a a a a a k O.X @ a a a a a a a a W W W W W T ",
"T W W W W W a a a a a a a a a k ( a a a a a a a a a W W W W W T "
};
