/* XPM */
static char *result[] = {
/* columns rows colors chars-per-pixel */
"32 32 9 1 ",
"  c black",
". c #663931",
"X c #59413E",
"o c #514047",
"O c #77514C",
"+ c #8D5D57",
"@ c #D18C47",
"# c #D9A066",
"$ c #DDD540",
/* pixels */
"ooOOOOOOOOOOooooooOOOOOOOOOOoooo",
"ooOOOOOOOOOOooooooOOOOOOOOOOoooo",
"OOOOOOOOOOOO++ooOOOOOOOOOOOO++oo",
"OOOOOOOOOOOO++ooOOOOOOOOOOOO++oo",
"OOOOOOOOOOOO++ooOOOOOOOOOOOO++oo",
"OOOOOOOOOOOO++ooOOOOOOOOOOOO++oo",
"OOOOOOOOOOOO++ooOOOOOOOOOOOO++oo",
"OOOOOOOOOOOO++ooOOOOOOOOOOOO++oo",
"OOOOOOOOOOOO++ooOOOOOOOOOOOO++oo",
"OOOOOOOOOOOO++o      OOOOOOO++oo",
"OOOOOOOOOO++++o      OOOOO++++oo",
"OOOOOOOOOO+++  ..@@##  OOO++++oo",
"XX+++++++++  @@@@..  +++++++XXoo",
"XX+++++++++  @@@@..  +++++++XXoo",
"ooXXXXX    $$  ######    XXXoooo",
"ooXXXXX    $$  ######    XXXoooo",
"ooooooo    $$  ######    OOOoooo",
"ooooo  $$    @@####@@  $$  Ooooo",
"ooooo  $$    @@####@@  $$  O++oo",
"ooo  $$  $$    @@@@$$    OOO++oo",
"ooooo                OOOOOOO++oo",
"ooooo                OOOOOOO++oo",
"ooooooooooooooooOOOOOOOOOOOO++oo",
"ooooooooooooooooOOOOOOOOOOOO++oo",
"ooooooooooooooooOOOOOOOOOOOO++oo",
"ooooooooooooooooOOOOOOOOOOOO++oo",
"ooooooooooooooooOOOOOOOOOO++++oo",
"ooooooooooooooooOOOOOOOOOO++++oo",
"ooooooooooooooooXX++++++++++XXoo",
"ooooooooooooooooXX++++++++++XXoo",
"ooooooooooooooooooXXXXXXXXXXoooo",
"ooooooooooooooooooXXXXXXXXXXoooo"
};
