/* XPM */
static char *result[] = {
/* columns rows colors chars-per-pixel */
"16 16 4 1 ",
"  c #434F65",
". c #8895AF",
"X c #A6B0C4",
"o c None",
/* pixels */
"X...oooooooooooo",
"X...oooooooooooo",
"X...oooooooooooo",
"X...oooooooooooo",
"X...oooooooooooo",
"X...oooooooooooo",
"X...oooooooooooo",
"    oooooooooooo",
"X.. oooooooooooo",
"X.. oooooooooooo",
"X..ooooooooooooo",
"X..ooooooooooooo",
"X..ooooooooooooo",
"X..ooooooooooooo",
"X..ooooooooooooo",
"   ooooooooooooo"
};
