/* XPM */
static char *result[] = {
/* columns rows colors chars-per-pixel */
"16 16 5 1 ",
"  c #353F50",
". c #434F65",
"X c #8895AF",
"o c #A6B0C4",
"O c None",
/* pixels */
"OOOOOOOOOOOOOOOO",
"OOOOOOOOOOOOOOOO",
"OOOOOOOOOOOOOOOO",
"OOOOOOOOOOOOOOOO",
"OOOOOOOOOOOOOOOO",
"OOOOOOOOOOOOOOOO",
"OOOOOOOOOOOOOOOO",
"OOOOOOOOOOOOOOOO",
"OOOOOOOOOOOOOOOO",
"OOOOOoooooooOOOO",
"ooooOXXXXXXXOooo",
"XXXXOXXXXXXXOXXX",
"XXXXOXXXXXXXOXXX",
".... ....... ...",
".... ....... ...",
".... ....... ..."
};
