/* XPM */
static char *result[] = {
/* columns rows colors chars-per-pixel */
"32 32 14 1 ",
"  c #060608",
". c #34292E",
"X c #3A2A28",
"o c #4D3431",
"O c #5B3C38",
"+ c #59413E",
"@ c #514047",
"# c #77514C",
"$ c #AC3232",
"% c #DF7126",
"& c #8D5D57",
"* c #847E87",
"= c #9BADB7",
"- c white",
/* pixels */
"@@##########@@  @@##########@@@@",
"@@##########@@  @@##########@@@@",
"##########    $$  ##########&&@@",
"##########    $$  ##########&&@@",
"##########  $$**        ####&&@@",
"##########  $$**        ####&&@@",
"##########  ****========  ##&&@@",
"##########  ****========  ##&&@@",
"########  **============  ##&&@@",
"########  **============  ##&&@@",
"########  ==============  &&&&@@",
"########  ==============  &&&&@@",
"++&&&&&&  ====----------  &&++@@",
"++&&&&&&  ====----------  &&++@@",
"@@++++++  **==--          ++@@@@",
"@@++++++  **==--          ++@@@@",
"@@@@@@@@    **------  --  ##@@@@",
"@@@@@@@@    **------  --  ##@@@@",
"@@@@@@@@@@  $$$$$$$$%%$$  ##&&@@",
"@@@@@@@@@@  $$$$$$$$%%$$  ##&&@@",
"@@@@@@@@$$  ************  ##&&@@",
"@@@@@@@@$$  ************  ##&&@@",
"@@@@@@@@$$  ****      **  ##&&@@",
"@@@@@@@@$$  ****      **  ##&&@@",
"@@@@@@$$$$  **  $$  **  oooo&&@@",
"@@@@@@$$$$  **  $$  **  oooo&&@@",
"@@@@......    ..oo    ooooOOOO@@",
"@@@@......    ..oo    ooooOOOO@@",
"@@@@............XXOOOOOOOOOOXX@@",
"@@@@............XXOOOOOOOOOOXX@@",
"@@@@@@............XXXXXXXXXX@@@@",
"@@@@@@............XXXXXXXXXX@@@@"
};
