/* XPM */
static char *_efc0d167fa54eedcbd39e6330af6b9aGSVJRHCbkohRTkWK[] = {
/* columns rows colors chars-per-pixel */
"32 32 9 1 ",
"  c black",
". c #45283C",
"X c #59413E",
"o c #514047",
"O c #77514C",
"+ c #8D5D57",
"@ c #D95763",
"# c #306082",
"$ c gray84",
/* pixels */
"ooOOOOOOOOOOooooooOOOOOOOOOOoooo",
"ooOOOOOOOOOOooooooOOOOOOOOOOoooo",
"OOOOOOOOOOOO++ooOOOOOOOOOOOO++oo",
"OOOOOOOOOOOO++ooOOOOOOOOOOOO++oo",
"OOOOOOOOOOOO++ooOOOOOOOOOOOO++oo",
"OOOOOOOOOOOO++ooOOOOOOOOOOOO++oo",
"OOOOOOOOOOOO++ooOOOOOOOOOOOO++oo",
"OOOOOOOOOOOO++ooOOOOOOOOOOOO++oo",
"OOOOOOOOOOOO++ooOOOOOOOOOOOO++oo",
"OOOOOOOOOOOO++ooOOOOOOOOOOOO++oo",
"OOOOOOOOOO++++      OOOOOO++++oo",
"OOOOOOOOOO++++      OOOOOO++++oo",
"XX++++++      @@$$@@    ++++XXoo",
"XX++++++      @@$$@@    ++++XXoo",
"ooXXXX  ..  $$$$$$$$@@    XXoooo",
"ooXXXX  ..  $$$$$$$$@@    XXoooo",
"oooo  ....  @@$$####$$  ..  oooo",
"oooo  ....  @@$$####$$  ..  oooo",
"oooo  ....    @@####  ....  ++oo",
"oooo  ....    @@####  ....  ++oo",
"oooo  ..  oooo      OO  ..  ++oo",
"oooo  ..  oooo      OO  ..  ++oo",
"oooooo    ooooooOOOOOO    OO++oo",
"oooooo    ooooooOOOOOO    OO++oo",
"ooooooooooooooooOOOOOOOOOOOO++oo",
"ooooooooooooooooOOOOOOOOOOOO++oo",
"ooooooooooooooooOOOOOOOOOO++++oo",
"ooooooooooooooooOOOOOOOOOO++++oo",
"ooooooooooooooooXX++++++++++XXoo",
"ooooooooooooooooXX++++++++++XXoo",
"ooooooooooooooooooXXXXXXXXXXoooo",
"ooooooooooooooooooXXXXXXXXXXoooo"
};
