/* XPM */
static char *a8fbecee74724f2bfa6942e33195ef91GhVZWizYpvMFTI7R[] = {
/* columns rows colors chars-per-pixel */
"32 32 9 1 ",
"  c black",
". c #45283C",
"X c #59413E",
"o c #514047",
"O c #77514C",
"+ c #8D5D57",
"@ c #D95763",
"# c #306082",
"$ c gray84",
/* pixels */
"ooOOOOOOOOOOooooooOOOOOOOOOOoooo",
"ooOOOOOOOOOOooooooOOOOOOOOOOoooo",
"OOOOOOOOOOOO++ooOOOOOOOOOOOO++oo",
"OOOOOOOOOOOO++ooOOOOOOOOOOOO++oo",
"OOOOOOOOOOOO++ooOOOOOOOOOOOO++oo",
"OOOOOOOOOOOO++ooOOOOOOOOOOOO++oo",
"OOOOOOOOOOOO++ooOOOOOOOOOOOO++oo",
"OOOOOOOOOOOO++ooOOOOOOOOOOOO++oo",
"OOOOOOOOOOOO++      OOOOOOOO++oo",
"OOOOOOOOOOOO++      OOOOOOOO++oo",
"OOOOOOOOOO    @@$$@@  OOOO++++oo",
"OOOOOOOOOO    @@$$@@  OOOO++++oo",
"XX++++++    $$$$$$$$@@  ++++XXoo",
"XX++++++    $$$$$$$$@@  ++++XXoo",
"ooXXXX  ..  @@$$####$$    XXoooo",
"ooXXXX  ..  @@$$####$$    XXoooo",
"oooooo  ..    @@####  ..  OOoooo",
"oooooo  ..    @@####  ..  OOoooo",
"oooooo  ..  oo        ..  OO++oo",
"oooooo  ..  oo        ..  OO++oo",
"oooooo  ..  ooooOOOO  ..  OO++oo",
"oooooo  ..  ooooOOOO  ..  OO++oo",
"oooooo  ..  ooooOOOO  ..  OO++oo",
"oooooo  ..  ooooOOOO  ..  OO++oo",
"oooooooo    ooooOOOO    OOOO++oo",
"oooooooo    ooooOOOO    OOOO++oo",
"ooooooooooooooooOOOOOOOOOO++++oo",
"ooooooooooooooooOOOOOOOOOO++++oo",
"ooooooooooooooooXX++++++++++XXoo",
"ooooooooooooooooXX++++++++++XXoo",
"ooooooooooooooooooXXXXXXXXXXoooo",
"ooooooooooooooooooXXXXXXXXXXoooo"
};
