/* XPM */
static char *_3fa905eed0940c5acc3104c5790bdb3mOTiDHJrWJoNlAKb[] = {
/* columns rows colors chars-per-pixel */
"32 32 9 1 ",
"  c black",
". c #45283C",
"X c #59413E",
"o c #514047",
"O c #77514C",
"+ c #8D5D57",
"@ c #D95763",
"# c #306082",
"$ c gray84",
/* pixels */
"ooOOOOOOOOOOooooooOOOOOOOOOOoooo",
"ooOOOOOOOOOOooooooOOOOOOOOOOoooo",
"OOOOOOOOOOOO++ooOOOOOOOOOOOO++oo",
"OOOOOOOOOOOO++ooOOOOOOOOOOOO++oo",
"OOOOOOOOOOOO++ooOOOOOOOOOOOO++oo",
"OOOOOOOOOOOO++ooOOOOOOOOOOOO++oo",
"OOOOOOOOOOOO++ooOOOOOOOOOOOO++oo",
"OOOOOOOOOOOO++ooOOOOOOOOOOOO++oo",
"OOOOOO    OO++ooOOOOOO    OO++oo",
"OOOOOO    OO++ooOOOOOO    OO++oo",
"OOOO  ..  ++++ooOOOOOO  ..  ++oo",
"OOOO  ..  ++++ooOOOOOO  ..  ++oo",
"XX++  ..    XX      ++  ..  XXoo",
"XX++  ..    XX      ++  ..  XXoo",
"ooXX  ......  @@$$@@  ....  oooo",
"ooXX  ......  @@$$@@  ....  oooo",
"oooooo  ..  $$$$$$$$@@    OOoooo",
"oooooo  ..  $$$$$$$$@@    OOoooo",
"oooooooo    @@$$####$$  OOOO++oo",
"oooooooo    @@$$####$$  OOOO++oo",
"oooooooooooo  @@####  OOOOOO++oo",
"oooooooooooo  @@####  OOOOOO++oo",
"oooooooooooooo      OOOOOOOO++oo",
"oooooooooooooo      OOOOOOOO++oo",
"ooooooooooooooooOOOOOOOOOOOO++oo",
"ooooooooooooooooOOOOOOOOOOOO++oo",
"ooooooooooooooooOOOOOOOOOO++++oo",
"ooooooooooooooooOOOOOOOOOO++++oo",
"ooooooooooooooooXX++++++++++XXoo",
"ooooooooooooooooXX++++++++++XXoo",
"ooooooooooooooooooXXXXXXXXXXoooo",
"ooooooooooooooooooXXXXXXXXXXoooo"
};
