/* XPM */
static char *e1ce4219890d48a9c6a26a787aa5fb95phGR8yPQg8uQyBIH[] = {
/* columns rows colors chars-per-pixel */
"32 32 9 1 ",
"  c black",
". c #45283C",
"X c #59413E",
"o c #514047",
"O c #77514C",
"+ c #8D5D57",
"@ c #D95763",
"# c #306082",
"$ c gray84",
/* pixels */
"ooOOOOOOOOOOooooooOOOOOOOOOOoooo",
"ooOOOOOOOOOOooooooOOOOOOOOOOoooo",
"OOOOOOOOOOOO++ooOOOOOOOOOOOO++oo",
"OOOOOOOOOOOO++ooOOOOOOOOOOOO++oo",
"OOOOOOOOOOOO++ooOOOOOOOOOOOO++oo",
"OOOOOOOOOOOO++ooOOOOOOOOOOOO++oo",
"OOOOOOOOOO    ooOO    OOOOOO++oo",
"OOOOOOOOOO    ooOO    OOOOOO++oo",
"OOOOOOOO  ..  ooOO  ..  OOOO++oo",
"OOOOOOOO  ..  ooOO  ..  OOOO++oo",
"OOOOOO  ..  ++ooOOOO  ..  ++++oo",
"OOOOOO  ..  ++ooOOOO  ..  ++++oo",
"XX++++  ..  XX        ..  ++XXoo",
"XX++++  ..  XX        ..  ++XXoo",
"ooXXXX  ....  @@$$@@  ..  XXoooo",
"ooXXXX  ....  @@$$@@  ..  XXoooo",
"oooooo  ..  $$$$$$$$@@    OOoooo",
"oooooo  ..  $$$$$$$$@@    OOoooo",
"oooooooo    @@$$####$$  OOOO++oo",
"oooooooo    @@$$####$$  OOOO++oo",
"oooooooooooo  @@####  OOOOOO++oo",
"oooooooooooo  @@####  OOOOOO++oo",
"oooooooooooooo      OOOOOOOO++oo",
"oooooooooooooo      OOOOOOOO++oo",
"ooooooooooooooooOOOOOOOOOOOO++oo",
"ooooooooooooooooOOOOOOOOOOOO++oo",
"ooooooooooooooooOOOOOOOOOO++++oo",
"ooooooooooooooooOOOOOOOOOO++++oo",
"ooooooooooooooooXX++++++++++XXoo",
"ooooooooooooooooXX++++++++++XXoo",
"ooooooooooooooooooXXXXXXXXXXoooo",
"ooooooooooooooooooXXXXXXXXXXoooo"
};
